solid JSCAD
facet normal 0.9951834151854129 0.09803045516521001 0
outer loop
vertex 9.807833333333333 1.9508333333333332 -5
vertex 9.807833333333333 1.9508333333333332 5
vertex 10 0 5
endloop
endfacet
facet normal 0.9951834151854129 0.09803045516521001 0
outer loop
vertex 9.807833333333333 1.9508333333333332 -5
vertex 10 0 5
vertex 10 0 -5
endloop
endfacet
facet normal 0.9569514861279371 0.29024791659012256 0.000010612522042050845
outer loop
vertex 9.5345 2.8518333333333334 0
vertex 9.557 2.777833333333333 -5
vertex 9.238833333333334 3.826833333333333 -5
endloop
endfacet
facet normal 0.9569666013365613 0.2901980770548811 0
outer loop
vertex 9.5345 2.8518333333333334 0
vertex 9.238833333333334 3.826833333333333 -5
vertex 9.238833333333334 3.826833333333333 5
endloop
endfacet
facet normal 0.9569514861279371 0.29024791659012256 -0.000010612522042050845
outer loop
vertex 9.5345 2.8518333333333334 0
vertex 9.238833333333334 3.826833333333333 5
vertex 9.557 2.777833333333333 5
endloop
endfacet
facet normal 0.9569513839995037 0.2902482533089981 -0.000010607079024739974
outer loop
vertex 9.5345 2.8518333333333334 0
vertex 9.557 2.777833333333333 5
vertex 9.807833333333333 1.9508333333333332 5
endloop
endfacet
facet normal 0.9569350334639407 0.29030215591580893 0
outer loop
vertex 9.5345 2.8518333333333334 0
vertex 9.807833333333333 1.9508333333333332 5
vertex 9.807833333333333 1.9508333333333332 -5
endloop
endfacet
facet normal 0.9569513839995037 0.2902482533089981 0.000010607079024739974
outer loop
vertex 9.5345 2.8518333333333334 0
vertex 9.807833333333333 1.9508333333333332 -5
vertex 9.557 2.777833333333333 -5
endloop
endfacet
facet normal 0.8819015302973496 0.47143365475370863 0.000004975368188384351
outer loop
vertex 8.871833333333333 4.513333333333333 0
vertex 9.062166666666666 4.157333333333333 -5
vertex 8.314666666666666 5.555666666666666 -5
endloop
endfacet
facet normal 0.8819114529113189 0.47141509227415124 0
outer loop
vertex 8.871833333333333 4.513333333333333 0
vertex 8.314666666666666 5.555666666666666 -5
vertex 8.314666666666666 5.555666666666666 5
endloop
endfacet
facet normal 0.8819015302973496 0.47143365475370863 -0.000004975368188384351
outer loop
vertex 8.871833333333333 4.513333333333333 0
vertex 8.314666666666666 5.555666666666666 5
vertex 9.062166666666666 4.157333333333333 5
endloop
endfacet
facet normal 0.8819093537992823 0.47141901917662377 -0.000006315235917058312
outer loop
vertex 8.871833333333333 4.513333333333333 0
vertex 9.062166666666666 4.157333333333333 5
vertex 9.238833333333334 3.826833333333333 5
endloop
endfacet
facet normal 0.8818902307672826 0.47145479197610146 0
outer loop
vertex 8.871833333333333 4.513333333333333 0
vertex 9.238833333333334 3.826833333333333 5
vertex 9.238833333333334 3.826833333333333 -5
endloop
endfacet
facet normal 0.8819093537992823 0.47141901917662377 0.000006315235917058312
outer loop
vertex 8.871833333333333 4.513333333333333 0
vertex 9.238833333333334 3.826833333333333 -5
vertex 9.062166666666666 4.157333333333333 -5
endloop
endfacet
facet normal 0.7729942582290696 0.6344130174774874 0
outer loop
vertex 7.071 7.071 -5
vertex 7.071 7.071 5
vertex 8.314666666666666 5.555666666666666 5
endloop
endfacet
facet normal 0.7729942582290696 0.6344130174774874 0
outer loop
vertex 7.071 7.071 -5
vertex 8.314666666666666 5.555666666666666 5
vertex 8.314666666666666 5.555666666666666 -5
endloop
endfacet
facet normal 0.6344130174774874 0.7729942582290696 0
outer loop
vertex 5.555666666666666 8.314666666666666 -5
vertex 5.555666666666666 8.314666666666666 5
vertex 7.071 7.071 5
endloop
endfacet
facet normal 0.6344130174774874 0.7729942582290696 0
outer loop
vertex 5.555666666666666 8.314666666666666 -5
vertex 7.071 7.071 5
vertex 7.071 7.071 -5
endloop
endfacet
facet normal 0.47143085691611103 0.8819030259316163 0
outer loop
vertex 3.826833333333333 9.238833333333334 -5
vertex 3.826833333333333 9.238833333333334 5
vertex 5.555666666666666 8.314666666666666 5
endloop
endfacet
facet normal 0.47143085691611103 0.8819030259316163 0
outer loop
vertex 3.826833333333333 9.238833333333334 -5
vertex 5.555666666666666 8.314666666666666 5
vertex 5.555666666666666 8.314666666666666 -5
endloop
endfacet
facet normal 0.29024806504277917 0.956951441160377 0
outer loop
vertex 1.9508333333333332 9.807833333333333 -5
vertex 1.9508333333333332 9.807833333333333 5
vertex 3.826833333333333 9.238833333333334 5
endloop
endfacet
facet normal 0.29024806504277917 0.956951441160377 0
outer loop
vertex 1.9508333333333332 9.807833333333333 -5
vertex 3.826833333333333 9.238833333333334 5
vertex 3.826833333333333 9.238833333333334 -5
endloop
endfacet
facet normal 0.09803045516521001 0.9951834151854129 0
outer loop
vertex 0 10 -5
vertex 0 10 5
vertex 1.9508333333333332 9.807833333333333 5
endloop
endfacet
facet normal 0.09803045516521001 0.9951834151854129 0
outer loop
vertex 0 10 -5
vertex 1.9508333333333332 9.807833333333333 5
vertex 1.9508333333333332 9.807833333333333 -5
endloop
endfacet
facet normal -0.09803045516521001 0.9951834151854129 0
outer loop
vertex -1.9508333333333332 9.807833333333333 -5
vertex -1.9508333333333332 9.807833333333333 5
vertex 0 10 5
endloop
endfacet
facet normal -0.09803045516521001 0.9951834151854129 0
outer loop
vertex -1.9508333333333332 9.807833333333333 -5
vertex 0 10 5
vertex 0 10 -5
endloop
endfacet
facet normal -0.29024806504277917 0.956951441160377 0
outer loop
vertex -3.826833333333333 9.238833333333334 -5
vertex -3.826833333333333 9.238833333333334 5
vertex -1.9508333333333332 9.807833333333333 5
endloop
endfacet
facet normal -0.29024806504277917 0.956951441160377 0
outer loop
vertex -3.826833333333333 9.238833333333334 -5
vertex -1.9508333333333332 9.807833333333333 5
vertex -1.9508333333333332 9.807833333333333 -5
endloop
endfacet
facet normal -0.47143085691611103 0.8819030259316163 0
outer loop
vertex -5.555666666666666 8.314666666666666 -5
vertex -5.555666666666666 8.314666666666666 5
vertex -3.826833333333333 9.238833333333334 5
endloop
endfacet
facet normal -0.47143085691611103 0.8819030259316163 0
outer loop
vertex -5.555666666666666 8.314666666666666 -5
vertex -3.826833333333333 9.238833333333334 5
vertex -3.826833333333333 9.238833333333334 -5
endloop
endfacet
facet normal -0.6344130174774874 0.7729942582290696 0
outer loop
vertex -7.071 7.071 -5
vertex -7.071 7.071 5
vertex -5.555666666666666 8.314666666666666 5
endloop
endfacet
facet normal -0.6344130174774874 0.7729942582290696 0
outer loop
vertex -7.071 7.071 -5
vertex -5.555666666666666 8.314666666666666 5
vertex -5.555666666666666 8.314666666666666 -5
endloop
endfacet
facet normal -0.7729942582290696 0.6344130174774874 0
outer loop
vertex -8.314666666666666 5.555666666666666 -5
vertex -8.314666666666666 5.555666666666666 5
vertex -7.071 7.071 5
endloop
endfacet
facet normal -0.7729942582290696 0.6344130174774874 0
outer loop
vertex -8.314666666666666 5.555666666666666 -5
vertex -7.071 7.071 5
vertex -7.071 7.071 -5
endloop
endfacet
facet normal -0.8819093537992823 0.47141901917662377 0.000006315235917058312
outer loop
vertex -8.871833333333333 4.513333333333333 0
vertex -9.062166666666666 4.157333333333333 -5
vertex -9.238833333333334 3.826833333333333 -5
endloop
endfacet
facet normal -0.8818902307672826 0.47145479197610146 0
outer loop
vertex -8.871833333333333 4.513333333333333 0
vertex -9.238833333333334 3.826833333333333 -5
vertex -9.238833333333334 3.826833333333333 5
endloop
endfacet
facet normal -0.8819093537992823 0.47141901917662377 -0.000006315235917058312
outer loop
vertex -8.871833333333333 4.513333333333333 0
vertex -9.238833333333334 3.826833333333333 5
vertex -9.062166666666666 4.157333333333333 5
endloop
endfacet
facet normal -0.8819015302973496 0.47143365475370863 -0.000004975368188384351
outer loop
vertex -8.871833333333333 4.513333333333333 0
vertex -9.062166666666666 4.157333333333333 5
vertex -8.314666666666666 5.555666666666666 5
endloop
endfacet
facet normal -0.8819114529113189 0.47141509227415124 0
outer loop
vertex -8.871833333333333 4.513333333333333 0
vertex -8.314666666666666 5.555666666666666 5
vertex -8.314666666666666 5.555666666666666 -5
endloop
endfacet
facet normal -0.8819015302973496 0.47143365475370863 0.000004975368188384351
outer loop
vertex -8.871833333333333 4.513333333333333 0
vertex -8.314666666666666 5.555666666666666 -5
vertex -9.062166666666666 4.157333333333333 -5
endloop
endfacet
facet normal -0.9569513839995037 0.2902482533089981 0.000010607079024739974
outer loop
vertex -9.5345 2.8518333333333334 0
vertex -9.557 2.777833333333333 -5
vertex -9.807833333333333 1.9508333333333332 -5
endloop
endfacet
facet normal -0.9569350334639407 0.29030215591580893 0
outer loop
vertex -9.5345 2.8518333333333334 0
vertex -9.807833333333333 1.9508333333333332 -5
vertex -9.807833333333333 1.9508333333333332 5
endloop
endfacet
facet normal -0.9569513839995037 0.2902482533089981 -0.000010607079024739974
outer loop
vertex -9.5345 2.8518333333333334 0
vertex -9.807833333333333 1.9508333333333332 5
vertex -9.557 2.777833333333333 5
endloop
endfacet
facet normal -0.9569514861279371 0.29024791659012256 -0.000010612522042050845
outer loop
vertex -9.5345 2.8518333333333334 0
vertex -9.557 2.777833333333333 5
vertex -9.238833333333334 3.826833333333333 5
endloop
endfacet
facet normal -0.9569666013365613 0.2901980770548811 0
outer loop
vertex -9.5345 2.8518333333333334 0
vertex -9.238833333333334 3.826833333333333 5
vertex -9.238833333333334 3.826833333333333 -5
endloop
endfacet
facet normal -0.9569514861279371 0.29024791659012256 0.000010612522042050845
outer loop
vertex -9.5345 2.8518333333333334 0
vertex -9.238833333333334 3.826833333333333 -5
vertex -9.557 2.777833333333333 -5
endloop
endfacet
facet normal -0.9951834151854129 0.09803045516521001 0
outer loop
vertex -10 0 -5
vertex -10 0 5
vertex -9.807833333333333 1.9508333333333332 5
endloop
endfacet
facet normal -0.9951834151854129 0.09803045516521001 0
outer loop
vertex -10 0 -5
vertex -9.807833333333333 1.9508333333333332 5
vertex -9.807833333333333 1.9508333333333332 -5
endloop
endfacet
facet normal -0.9951834151854129 -0.09803045516521001 0
outer loop
vertex -9.807833333333333 -1.9508333333333332 -5
vertex -9.807833333333333 -1.9508333333333332 5
vertex -10 0 5
endloop
endfacet
facet normal -0.9951834151854129 -0.09803045516521001 0
outer loop
vertex -9.807833333333333 -1.9508333333333332 -5
vertex -10 0 5
vertex -10 0 -5
endloop
endfacet
facet normal -0.9569514861279371 -0.29024791659012256 0.000010612522042050845
outer loop
vertex -9.5345 -2.8518333333333334 0
vertex -9.557 -2.777833333333333 -5
vertex -9.238833333333334 -3.826833333333333 -5
endloop
endfacet
facet normal -0.9569666013365613 -0.2901980770548811 0
outer loop
vertex -9.5345 -2.8518333333333334 0
vertex -9.238833333333334 -3.826833333333333 -5
vertex -9.238833333333334 -3.826833333333333 5
endloop
endfacet
facet normal -0.9569514861279371 -0.29024791659012256 -0.000010612522042050845
outer loop
vertex -9.5345 -2.8518333333333334 0
vertex -9.238833333333334 -3.826833333333333 5
vertex -9.557 -2.777833333333333 5
endloop
endfacet
facet normal -0.9569513839995037 -0.2902482533089981 -0.000010607079024739974
outer loop
vertex -9.5345 -2.8518333333333334 0
vertex -9.557 -2.777833333333333 5
vertex -9.807833333333333 -1.9508333333333332 5
endloop
endfacet
facet normal -0.9569350334639407 -0.29030215591580893 0
outer loop
vertex -9.5345 -2.8518333333333334 0
vertex -9.807833333333333 -1.9508333333333332 5
vertex -9.807833333333333 -1.9508333333333332 -5
endloop
endfacet
facet normal -0.9569513839995037 -0.2902482533089981 0.000010607079024739974
outer loop
vertex -9.5345 -2.8518333333333334 0
vertex -9.807833333333333 -1.9508333333333332 -5
vertex -9.557 -2.777833333333333 -5
endloop
endfacet
facet normal -0.8819015302973496 -0.47143365475370863 0.000004975368188384351
outer loop
vertex -8.871833333333333 -4.513333333333333 0
vertex -9.062166666666666 -4.157333333333333 -5
vertex -8.314666666666666 -5.555666666666666 -5
endloop
endfacet
facet normal -0.8819114529113189 -0.47141509227415124 0
outer loop
vertex -8.871833333333333 -4.513333333333333 0
vertex -8.314666666666666 -5.555666666666666 -5
vertex -8.314666666666666 -5.555666666666666 5
endloop
endfacet
facet normal -0.8819015302973496 -0.47143365475370863 -0.000004975368188384351
outer loop
vertex -8.871833333333333 -4.513333333333333 0
vertex -8.314666666666666 -5.555666666666666 5
vertex -9.062166666666666 -4.157333333333333 5
endloop
endfacet
facet normal -0.8819093537992823 -0.47141901917662377 -0.000006315235917058312
outer loop
vertex -8.871833333333333 -4.513333333333333 0
vertex -9.062166666666666 -4.157333333333333 5
vertex -9.238833333333334 -3.826833333333333 5
endloop
endfacet
facet normal -0.8818902307672826 -0.47145479197610146 0
outer loop
vertex -8.871833333333333 -4.513333333333333 0
vertex -9.238833333333334 -3.826833333333333 5
vertex -9.238833333333334 -3.826833333333333 -5
endloop
endfacet
facet normal -0.8819093537992823 -0.47141901917662377 0.000006315235917058312
outer loop
vertex -8.871833333333333 -4.513333333333333 0
vertex -9.238833333333334 -3.826833333333333 -5
vertex -9.062166666666666 -4.157333333333333 -5
endloop
endfacet
facet normal -0.7729942582290696 -0.6344130174774874 0
outer loop
vertex -7.071 -7.071 -5
vertex -7.071 -7.071 5
vertex -8.314666666666666 -5.555666666666666 5
endloop
endfacet
facet normal -0.7729942582290696 -0.6344130174774874 0
outer loop
vertex -7.071 -7.071 -5
vertex -8.314666666666666 -5.555666666666666 5
vertex -8.314666666666666 -5.555666666666666 -5
endloop
endfacet
facet normal -0.6344130174774874 -0.7729942582290696 0
outer loop
vertex -5.555666666666666 -8.314666666666666 -5
vertex -5.555666666666666 -8.314666666666666 5
vertex -7.071 -7.071 5
endloop
endfacet
facet normal -0.6344130174774874 -0.7729942582290696 0
outer loop
vertex -5.555666666666666 -8.314666666666666 -5
vertex -7.071 -7.071 5
vertex -7.071 -7.071 -5
endloop
endfacet
facet normal -0.47143085691611103 -0.8819030259316163 0
outer loop
vertex -3.826833333333333 -9.238833333333334 -5
vertex -3.826833333333333 -9.238833333333334 5
vertex -5.555666666666666 -8.314666666666666 5
endloop
endfacet
facet normal -0.47143085691611103 -0.8819030259316163 0
outer loop
vertex -3.826833333333333 -9.238833333333334 -5
vertex -5.555666666666666 -8.314666666666666 5
vertex -5.555666666666666 -8.314666666666666 -5
endloop
endfacet
facet normal -0.29024806504277917 -0.956951441160377 0
outer loop
vertex -1.9508333333333332 -9.807833333333333 -5
vertex -1.9508333333333332 -9.807833333333333 5
vertex -3.826833333333333 -9.238833333333334 5
endloop
endfacet
facet normal -0.29024806504277917 -0.956951441160377 0
outer loop
vertex -1.9508333333333332 -9.807833333333333 -5
vertex -3.826833333333333 -9.238833333333334 5
vertex -3.826833333333333 -9.238833333333334 -5
endloop
endfacet
facet normal -0.09803045516521001 -0.9951834151854129 0
outer loop
vertex 0 -10 -5
vertex 0 -10 5
vertex -1.9508333333333332 -9.807833333333333 5
endloop
endfacet
facet normal -0.09803045516521001 -0.9951834151854129 0
outer loop
vertex 0 -10 -5
vertex -1.9508333333333332 -9.807833333333333 5
vertex -1.9508333333333332 -9.807833333333333 -5
endloop
endfacet
facet normal 0.09803045516521001 -0.9951834151854129 0
outer loop
vertex 1.9508333333333332 -9.807833333333333 -5
vertex 1.9508333333333332 -9.807833333333333 5
vertex 0 -10 5
endloop
endfacet
facet normal 0.09803045516521001 -0.9951834151854129 0
outer loop
vertex 1.9508333333333332 -9.807833333333333 -5
vertex 0 -10 5
vertex 0 -10 -5
endloop
endfacet
facet normal 0.29024806504277917 -0.956951441160377 0
outer loop
vertex 3.826833333333333 -9.238833333333334 -5
vertex 3.826833333333333 -9.238833333333334 5
vertex 1.9508333333333332 -9.807833333333333 5
endloop
endfacet
facet normal 0.29024806504277917 -0.956951441160377 0
outer loop
vertex 3.826833333333333 -9.238833333333334 -5
vertex 1.9508333333333332 -9.807833333333333 5
vertex 1.9508333333333332 -9.807833333333333 -5
endloop
endfacet
facet normal 0.47143085691611103 -0.8819030259316163 0
outer loop
vertex 5.555666666666666 -8.314666666666666 -5
vertex 5.555666666666666 -8.314666666666666 5
vertex 3.826833333333333 -9.238833333333334 5
endloop
endfacet
facet normal 0.47143085691611103 -0.8819030259316163 0
outer loop
vertex 5.555666666666666 -8.314666666666666 -5
vertex 3.826833333333333 -9.238833333333334 5
vertex 3.826833333333333 -9.238833333333334 -5
endloop
endfacet
facet normal 0.6344130174774874 -0.7729942582290696 0
outer loop
vertex 7.071 -7.071 -5
vertex 7.071 -7.071 5
vertex 5.555666666666666 -8.314666666666666 5
endloop
endfacet
facet normal 0.6344130174774874 -0.7729942582290696 0
outer loop
vertex 7.071 -7.071 -5
vertex 5.555666666666666 -8.314666666666666 5
vertex 5.555666666666666 -8.314666666666666 -5
endloop
endfacet
facet normal 0.7729942582290696 -0.6344130174774874 0
outer loop
vertex 8.314666666666666 -5.555666666666666 -5
vertex 8.314666666666666 -5.555666666666666 5
vertex 7.071 -7.071 5
endloop
endfacet
facet normal 0.7729942582290696 -0.6344130174774874 0
outer loop
vertex 8.314666666666666 -5.555666666666666 -5
vertex 7.071 -7.071 5
vertex 7.071 -7.071 -5
endloop
endfacet
facet normal 0.8819093537992823 -0.47141901917662377 0.000006315235917058312
outer loop
vertex 8.871833333333333 -4.513333333333333 0
vertex 9.062166666666666 -4.157333333333333 -5
vertex 9.238833333333334 -3.826833333333333 -5
endloop
endfacet
facet normal 0.8818902307672826 -0.47145479197610146 0
outer loop
vertex 8.871833333333333 -4.513333333333333 0
vertex 9.238833333333334 -3.826833333333333 -5
vertex 9.238833333333334 -3.826833333333333 5
endloop
endfacet
facet normal 0.8819093537992823 -0.47141901917662377 -0.000006315235917058312
outer loop
vertex 8.871833333333333 -4.513333333333333 0
vertex 9.238833333333334 -3.826833333333333 5
vertex 9.062166666666666 -4.157333333333333 5
endloop
endfacet
facet normal 0.8819015302973496 -0.47143365475370863 -0.000004975368188384351
outer loop
vertex 8.871833333333333 -4.513333333333333 0
vertex 9.062166666666666 -4.157333333333333 5
vertex 8.314666666666666 -5.555666666666666 5
endloop
endfacet
facet normal 0.8819114529113189 -0.47141509227415124 0
outer loop
vertex 8.871833333333333 -4.513333333333333 0
vertex 8.314666666666666 -5.555666666666666 5
vertex 8.314666666666666 -5.555666666666666 -5
endloop
endfacet
facet normal 0.8819015302973496 -0.47143365475370863 0.000004975368188384351
outer loop
vertex 8.871833333333333 -4.513333333333333 0
vertex 8.314666666666666 -5.555666666666666 -5
vertex 9.062166666666666 -4.157333333333333 -5
endloop
endfacet
facet normal 0.9569513839995037 -0.2902482533089981 0.000010607079024739974
outer loop
vertex 9.5345 -2.8518333333333334 0
vertex 9.557 -2.777833333333333 -5
vertex 9.807833333333333 -1.9508333333333332 -5
endloop
endfacet
facet normal 0.9569350334639407 -0.29030215591580893 0
outer loop
vertex 9.5345 -2.8518333333333334 0
vertex 9.807833333333333 -1.9508333333333332 -5
vertex 9.807833333333333 -1.9508333333333332 5
endloop
endfacet
facet normal 0.9569513839995037 -0.2902482533089981 -0.000010607079024739974
outer loop
vertex 9.5345 -2.8518333333333334 0
vertex 9.807833333333333 -1.9508333333333332 5
vertex 9.557 -2.777833333333333 5
endloop
endfacet
facet normal 0.9569514861279371 -0.29024791659012256 -0.000010612522042050845
outer loop
vertex 9.5345 -2.8518333333333334 0
vertex 9.557 -2.777833333333333 5
vertex 9.238833333333334 -3.826833333333333 5
endloop
endfacet
facet normal 0.9569666013365613 -0.2901980770548811 0
outer loop
vertex 9.5345 -2.8518333333333334 0
vertex 9.238833333333334 -3.826833333333333 5
vertex 9.238833333333334 -3.826833333333333 -5
endloop
endfacet
facet normal 0.9569514861279371 -0.29024791659012256 0.000010612522042050845
outer loop
vertex 9.5345 -2.8518333333333334 0
vertex 9.238833333333334 -3.826833333333333 -5
vertex 9.557 -2.777833333333333 -5
endloop
endfacet
facet normal 0.9951834151854129 -0.09803045516521001 0
outer loop
vertex 10 0 -5
vertex 10 0 5
vertex 9.807833333333333 -1.9508333333333332 5
endloop
endfacet
facet normal 0.9951834151854129 -0.09803045516521001 0
outer loop
vertex 10 0 -5
vertex 9.807833333333333 -1.9508333333333332 5
vertex 9.807833333333333 -1.9508333333333332 -5
endloop
endfacet
facet normal -0.9951925218597883 -0.09793796217174759 0
outer loop
vertex 5 0 -5
vertex 5 0 5
vertex 4.904 0.9754999999999999 5
endloop
endfacet
facet normal -0.9951925218597883 -0.09793796217174759 0
outer loop
vertex 5 0 -5
vertex 4.904 0.9754999999999999 5
vertex 4.904 0.9754999999999999 -5
endloop
endfacet
facet normal -0.9569042033151004 -0.29040376319512967 0
outer loop
vertex 4.904 0.9754999999999999 -5
vertex 4.904 0.9754999999999999 5
vertex 4.6193333333333335 1.9135 5
endloop
endfacet
facet normal -0.9569042033151004 -0.29040376319512967 0
outer loop
vertex 4.904 0.9754999999999999 -5
vertex 4.6193333333333335 1.9135 5
vertex 4.6193333333333335 1.9135 -5
endloop
endfacet
facet normal -0.8819194792677654 -0.47140007646167564 0
outer loop
vertex 4.6193333333333335 1.9135 -5
vertex 4.6193333333333335 1.9135 5
vertex 4.157333333333333 2.777833333333333 5
endloop
endfacet
facet normal -0.8819194792677654 -0.47140007646167564 0
outer loop
vertex 4.6193333333333335 1.9135 -5
vertex 4.157333333333333 2.777833333333333 5
vertex 4.157333333333333 2.777833333333333 -5
endloop
endfacet
facet normal -0.7729942582290696 -0.6344130174774874 0
outer loop
vertex 4.157333333333333 2.777833333333333 -5
vertex 4.157333333333333 2.777833333333333 5
vertex 3.5355 3.5355 5
endloop
endfacet
facet normal -0.7729942582290696 -0.6344130174774874 0
outer loop
vertex 4.157333333333333 2.777833333333333 -5
vertex 3.5355 3.5355 5
vertex 3.5355 3.5355 -5
endloop
endfacet
facet normal -0.6344130174774874 -0.7729942582290696 0
outer loop
vertex 3.5355 3.5355 -5
vertex 3.5355 3.5355 5
vertex 2.777833333333333 4.157333333333333 5
endloop
endfacet
facet normal -0.6344130174774874 -0.7729942582290696 0
outer loop
vertex 3.5355 3.5355 -5
vertex 2.777833333333333 4.157333333333333 5
vertex 2.777833333333333 4.157333333333333 -5
endloop
endfacet
facet normal -0.47140007646167564 -0.8819194792677654 0
outer loop
vertex 2.777833333333333 4.157333333333333 -5
vertex 2.777833333333333 4.157333333333333 5
vertex 1.9135 4.6193333333333335 5
endloop
endfacet
facet normal -0.47140007646167564 -0.8819194792677654 0
outer loop
vertex 2.777833333333333 4.157333333333333 -5
vertex 1.9135 4.6193333333333335 5
vertex 1.9135 4.6193333333333335 -5
endloop
endfacet
facet normal -0.29040376319512967 -0.9569042033151004 0
outer loop
vertex 1.9135 4.6193333333333335 -5
vertex 1.9135 4.6193333333333335 5
vertex 0.9754999999999999 4.904 5
endloop
endfacet
facet normal -0.29040376319512967 -0.9569042033151004 0
outer loop
vertex 1.9135 4.6193333333333335 -5
vertex 0.9754999999999999 4.904 5
vertex 0.9754999999999999 4.904 -5
endloop
endfacet
facet normal -0.09793796217174759 -0.9951925218597883 0
outer loop
vertex 0.9754999999999999 4.904 -5
vertex 0.9754999999999999 4.904 5
vertex 0 5 5
endloop
endfacet
facet normal -0.09793796217174759 -0.9951925218597883 0
outer loop
vertex 0.9754999999999999 4.904 -5
vertex 0 5 5
vertex 0 5 -5
endloop
endfacet
facet normal 0.09793796217174759 -0.9951925218597883 0
outer loop
vertex 0 5 -5
vertex 0 5 5
vertex -0.9754999999999999 4.904 5
endloop
endfacet
facet normal 0.09793796217174759 -0.9951925218597883 0
outer loop
vertex 0 5 -5
vertex -0.9754999999999999 4.904 5
vertex -0.9754999999999999 4.904 -5
endloop
endfacet
facet normal 0.29040376319512967 -0.9569042033151004 0
outer loop
vertex -0.9754999999999999 4.904 -5
vertex -0.9754999999999999 4.904 5
vertex -1.9135 4.6193333333333335 5
endloop
endfacet
facet normal 0.29040376319512967 -0.9569042033151004 0
outer loop
vertex -0.9754999999999999 4.904 -5
vertex -1.9135 4.6193333333333335 5
vertex -1.9135 4.6193333333333335 -5
endloop
endfacet
facet normal 0.47140007646167564 -0.8819194792677654 0
outer loop
vertex -1.9135 4.6193333333333335 -5
vertex -1.9135 4.6193333333333335 5
vertex -2.777833333333333 4.157333333333333 5
endloop
endfacet
facet normal 0.47140007646167564 -0.8819194792677654 0
outer loop
vertex -1.9135 4.6193333333333335 -5
vertex -2.777833333333333 4.157333333333333 5
vertex -2.777833333333333 4.157333333333333 -5
endloop
endfacet
facet normal 0.6344130174774874 -0.7729942582290696 0
outer loop
vertex -2.777833333333333 4.157333333333333 -5
vertex -2.777833333333333 4.157333333333333 5
vertex -3.5355 3.5355 5
endloop
endfacet
facet normal 0.6344130174774874 -0.7729942582290696 0
outer loop
vertex -2.777833333333333 4.157333333333333 -5
vertex -3.5355 3.5355 5
vertex -3.5355 3.5355 -5
endloop
endfacet
facet normal 0.7729942582290696 -0.6344130174774874 0
outer loop
vertex -3.5355 3.5355 -5
vertex -3.5355 3.5355 5
vertex -4.157333333333333 2.777833333333333 5
endloop
endfacet
facet normal 0.7729942582290696 -0.6344130174774874 0
outer loop
vertex -3.5355 3.5355 -5
vertex -4.157333333333333 2.777833333333333 5
vertex -4.157333333333333 2.777833333333333 -5
endloop
endfacet
facet normal 0.8819194792677654 -0.47140007646167564 0
outer loop
vertex -4.157333333333333 2.777833333333333 -5
vertex -4.157333333333333 2.777833333333333 5
vertex -4.6193333333333335 1.9135 5
endloop
endfacet
facet normal 0.8819194792677654 -0.47140007646167564 0
outer loop
vertex -4.157333333333333 2.777833333333333 -5
vertex -4.6193333333333335 1.9135 5
vertex -4.6193333333333335 1.9135 -5
endloop
endfacet
facet normal 0.9569042033151004 -0.29040376319512967 0
outer loop
vertex -4.6193333333333335 1.9135 -5
vertex -4.6193333333333335 1.9135 5
vertex -4.904 0.9754999999999999 5
endloop
endfacet
facet normal 0.9569042033151004 -0.29040376319512967 0
outer loop
vertex -4.6193333333333335 1.9135 -5
vertex -4.904 0.9754999999999999 5
vertex -4.904 0.9754999999999999 -5
endloop
endfacet
facet normal 0.9951925218597883 -0.09793796217174759 0
outer loop
vertex -4.904 0.9754999999999999 -5
vertex -4.904 0.9754999999999999 5
vertex -5 0 5
endloop
endfacet
facet normal 0.9951925218597883 -0.09793796217174759 0
outer loop
vertex -4.904 0.9754999999999999 -5
vertex -5 0 5
vertex -5 0 -5
endloop
endfacet
facet normal 0.9951925218597883 0.09793796217174759 0
outer loop
vertex -5 0 -5
vertex -5 0 5
vertex -4.904 -0.9754999999999999 5
endloop
endfacet
facet normal 0.9951925218597883 0.09793796217174759 0
outer loop
vertex -5 0 -5
vertex -4.904 -0.9754999999999999 5
vertex -4.904 -0.9754999999999999 -5
endloop
endfacet
facet normal 0.9569042033151004 0.29040376319512967 0
outer loop
vertex -4.904 -0.9754999999999999 -5
vertex -4.904 -0.9754999999999999 5
vertex -4.6193333333333335 -1.9135 5
endloop
endfacet
facet normal 0.9569042033151004 0.29040376319512967 0
outer loop
vertex -4.904 -0.9754999999999999 -5
vertex -4.6193333333333335 -1.9135 5
vertex -4.6193333333333335 -1.9135 -5
endloop
endfacet
facet normal 0.8819194792677654 0.47140007646167564 0
outer loop
vertex -4.6193333333333335 -1.9135 -5
vertex -4.6193333333333335 -1.9135 5
vertex -4.157333333333333 -2.777833333333333 5
endloop
endfacet
facet normal 0.8819194792677654 0.47140007646167564 0
outer loop
vertex -4.6193333333333335 -1.9135 -5
vertex -4.157333333333333 -2.777833333333333 5
vertex -4.157333333333333 -2.777833333333333 -5
endloop
endfacet
facet normal 0.7729942582290696 0.6344130174774874 0
outer loop
vertex -4.157333333333333 -2.777833333333333 -5
vertex -4.157333333333333 -2.777833333333333 5
vertex -3.5355 -3.5355 5
endloop
endfacet
facet normal 0.7729942582290696 0.6344130174774874 0
outer loop
vertex -4.157333333333333 -2.777833333333333 -5
vertex -3.5355 -3.5355 5
vertex -3.5355 -3.5355 -5
endloop
endfacet
facet normal 0.6344130174774874 0.7729942582290696 0
outer loop
vertex -3.5355 -3.5355 -5
vertex -3.5355 -3.5355 5
vertex -2.777833333333333 -4.157333333333333 5
endloop
endfacet
facet normal 0.6344130174774874 0.7729942582290696 0
outer loop
vertex -3.5355 -3.5355 -5
vertex -2.777833333333333 -4.157333333333333 5
vertex -2.777833333333333 -4.157333333333333 -5
endloop
endfacet
facet normal 0.47140007646167564 0.8819194792677654 0
outer loop
vertex -2.777833333333333 -4.157333333333333 -5
vertex -2.777833333333333 -4.157333333333333 5
vertex -1.9135 -4.6193333333333335 5
endloop
endfacet
facet normal 0.47140007646167564 0.8819194792677654 0
outer loop
vertex -2.777833333333333 -4.157333333333333 -5
vertex -1.9135 -4.6193333333333335 5
vertex -1.9135 -4.6193333333333335 -5
endloop
endfacet
facet normal 0.29040376319512967 0.9569042033151004 0
outer loop
vertex -1.9135 -4.6193333333333335 -5
vertex -1.9135 -4.6193333333333335 5
vertex -0.9754999999999999 -4.904 5
endloop
endfacet
facet normal 0.29040376319512967 0.9569042033151004 0
outer loop
vertex -1.9135 -4.6193333333333335 -5
vertex -0.9754999999999999 -4.904 5
vertex -0.9754999999999999 -4.904 -5
endloop
endfacet
facet normal 0.09793796217174759 0.9951925218597883 0
outer loop
vertex -0.9754999999999999 -4.904 -5
vertex -0.9754999999999999 -4.904 5
vertex 0 -5 5
endloop
endfacet
facet normal 0.09793796217174759 0.9951925218597883 0
outer loop
vertex -0.9754999999999999 -4.904 -5
vertex 0 -5 5
vertex 0 -5 -5
endloop
endfacet
facet normal -0.09793796217174759 0.9951925218597883 0
outer loop
vertex 0 -5 -5
vertex 0 -5 5
vertex 0.9754999999999999 -4.904 5
endloop
endfacet
facet normal -0.09793796217174759 0.9951925218597883 0
outer loop
vertex 0 -5 -5
vertex 0.9754999999999999 -4.904 5
vertex 0.9754999999999999 -4.904 -5
endloop
endfacet
facet normal -0.29040376319512967 0.9569042033151004 0
outer loop
vertex 0.9754999999999999 -4.904 -5
vertex 0.9754999999999999 -4.904 5
vertex 1.9135 -4.6193333333333335 5
endloop
endfacet
facet normal -0.29040376319512967 0.9569042033151004 0
outer loop
vertex 0.9754999999999999 -4.904 -5
vertex 1.9135 -4.6193333333333335 5
vertex 1.9135 -4.6193333333333335 -5
endloop
endfacet
facet normal -0.47140007646167564 0.8819194792677654 0
outer loop
vertex 1.9135 -4.6193333333333335 -5
vertex 1.9135 -4.6193333333333335 5
vertex 2.777833333333333 -4.157333333333333 5
endloop
endfacet
facet normal -0.47140007646167564 0.8819194792677654 0
outer loop
vertex 1.9135 -4.6193333333333335 -5
vertex 2.777833333333333 -4.157333333333333 5
vertex 2.777833333333333 -4.157333333333333 -5
endloop
endfacet
facet normal -0.6344130174774874 0.7729942582290696 0
outer loop
vertex 2.777833333333333 -4.157333333333333 -5
vertex 2.777833333333333 -4.157333333333333 5
vertex 3.5355 -3.5355 5
endloop
endfacet
facet normal -0.6344130174774874 0.7729942582290696 0
outer loop
vertex 2.777833333333333 -4.157333333333333 -5
vertex 3.5355 -3.5355 5
vertex 3.5355 -3.5355 -5
endloop
endfacet
facet normal -0.7729942582290696 0.6344130174774874 0
outer loop
vertex 3.5355 -3.5355 -5
vertex 3.5355 -3.5355 5
vertex 4.157333333333333 -2.777833333333333 5
endloop
endfacet
facet normal -0.7729942582290696 0.6344130174774874 0
outer loop
vertex 3.5355 -3.5355 -5
vertex 4.157333333333333 -2.777833333333333 5
vertex 4.157333333333333 -2.777833333333333 -5
endloop
endfacet
facet normal -0.8819194792677654 0.47140007646167564 0
outer loop
vertex 4.157333333333333 -2.777833333333333 -5
vertex 4.157333333333333 -2.777833333333333 5
vertex 4.6193333333333335 -1.9135 5
endloop
endfacet
facet normal -0.8819194792677654 0.47140007646167564 0
outer loop
vertex 4.157333333333333 -2.777833333333333 -5
vertex 4.6193333333333335 -1.9135 5
vertex 4.6193333333333335 -1.9135 -5
endloop
endfacet
facet normal -0.9569042033151004 0.29040376319512967 0
outer loop
vertex 4.6193333333333335 -1.9135 -5
vertex 4.6193333333333335 -1.9135 5
vertex 4.904 -0.9754999999999999 5
endloop
endfacet
facet normal -0.9569042033151004 0.29040376319512967 0
outer loop
vertex 4.6193333333333335 -1.9135 -5
vertex 4.904 -0.9754999999999999 5
vertex 4.904 -0.9754999999999999 -5
endloop
endfacet
facet normal -0.9951925218597883 0.09793796217174759 0
outer loop
vertex 4.904 -0.9754999999999999 -5
vertex 4.904 -0.9754999999999999 5
vertex 5 0 5
endloop
endfacet
facet normal -0.9951925218597883 0.09793796217174759 0
outer loop
vertex 4.904 -0.9754999999999999 -5
vertex 5 0 5
vertex 5 0 -5
endloop
endfacet
facet normal 0 0 -1
outer loop
vertex 0 7.498333333333333 -5
vertex 1.9508333333333332 9.807833333333333 -5
vertex 3.826833333333333 9.238833333333334 -5
endloop
endfacet
facet normal 0 0 -1
outer loop
vertex 0 7.498333333333333 -5
vertex 3.826833333333333 9.238833333333334 -5
vertex 5.555666666666666 8.314666666666666 -5
endloop
endfacet
facet normal 0 0 -1
outer loop
vertex 0 7.498333333333333 -5
vertex 5.555666666666666 8.314666666666666 -5
vertex 7.071 7.071 -5
endloop
endfacet
facet normal 0 0 -1
outer loop
vertex 0 7.498333333333333 -5
vertex 7.071 7.071 -5
vertex 8.314666666666666 5.555666666666666 -5
endloop
endfacet
facet normal 0 0 -1
outer loop
vertex 0 7.498333333333333 -5
vertex 8.314666666666666 5.555666666666666 -5
vertex 8.611666666666666 5 -5
endloop
endfacet
facet normal 0 0 -1
outer loop
vertex 0 7.498333333333333 -5
vertex 8.611666666666666 5 -5
vertex 0 5 -5
endloop
endfacet
facet normal 0 0 -1
outer loop
vertex 0 7.498333333333333 -5
vertex 0 5 -5
vertex -8.611666666666666 5 -5
endloop
endfacet
facet normal 0 0 -1
outer loop
vertex 0 7.498333333333333 -5
vertex -8.611666666666666 5 -5
vertex -8.314666666666666 5.555666666666666 -5
endloop
endfacet
facet normal 0 0 -1
outer loop
vertex 0 7.498333333333333 -5
vertex -8.314666666666666 5.555666666666666 -5
vertex -7.071 7.071 -5
endloop
endfacet
facet normal 0 0 -1
outer loop
vertex 0 7.498333333333333 -5
vertex -7.071 7.071 -5
vertex -5.555666666666666 8.314666666666666 -5
endloop
endfacet
facet normal 0 0 -1
outer loop
vertex 0 7.498333333333333 -5
vertex -5.555666666666666 8.314666666666666 -5
vertex -3.826833333333333 9.238833333333334 -5
endloop
endfacet
facet normal 0 0 -1
outer loop
vertex 0 7.498333333333333 -5
vertex -3.826833333333333 9.238833333333334 -5
vertex -1.9508333333333332 9.807833333333333 -5
endloop
endfacet
facet normal 0 0 -1
outer loop
vertex 0 7.498333333333333 -5
vertex -1.9508333333333332 9.807833333333333 -5
vertex 0 10 -5
endloop
endfacet
facet normal 0 0 -1
outer loop
vertex 0 7.498333333333333 -5
vertex 0 10 -5
vertex 1.9508333333333332 9.807833333333333 -5
endloop
endfacet
facet normal 0 0 -0.9999999999999999
outer loop
vertex 0 5 -5
vertex -0.9754999999999999 4.904 -5
vertex -8.663 4.904 -5
endloop
endfacet
facet normal 0 0 -1
outer loop
vertex 0 5 -5
vertex -8.663 4.904 -5
vertex -8.611666666666666 5 -5
endloop
endfacet
facet normal 0 0 -0.9999999999999999
outer loop
vertex 8.611666666666666 5 -5
vertex 8.663 4.904 -5
vertex 0.9754999999999999 4.904 -5
endloop
endfacet
facet normal 0 0 -1
outer loop
vertex 8.611666666666666 5 -5
vertex 0.9754999999999999 4.904 -5
vertex 0 5 -5
endloop
endfacet
facet normal 0 0 -1
outer loop
vertex -0.9754999999999999 4.904 -5
vertex -1.9135 4.6193333333333335 -5
vertex -8.815166666666666 4.6193333333333335 -5
endloop
endfacet
facet normal 0 0 -1
outer loop
vertex -0.9754999999999999 4.904 -5
vertex -8.815166666666666 4.6193333333333335 -5
vertex -8.663 4.904 -5
endloop
endfacet
facet normal 0 0 -1
outer loop
vertex 8.663 4.904 -5
vertex 8.815166666666666 4.6193333333333335 -5
vertex 1.9135 4.6193333333333335 -5
endloop
endfacet
facet normal 0 0 -1
outer loop
vertex 8.663 4.904 -5
vertex 1.9135 4.6193333333333335 -5
vertex 0.9754999999999999 4.904 -5
endloop
endfacet
facet normal 0 0 -1
outer loop
vertex -1.9135 4.6193333333333335 -5
vertex -2.777833333333333 4.157333333333333 -5
vertex -9.062166666666666 4.157333333333333 -5
endloop
endfacet
facet normal 0 0 -0.9999999999999999
outer loop
vertex -1.9135 4.6193333333333335 -5
vertex -9.062166666666666 4.157333333333333 -5
vertex -8.815166666666666 4.6193333333333335 -5
endloop
endfacet
facet normal 0 0 -1
outer loop
vertex 8.815166666666666 4.6193333333333335 -5
vertex 9.062166666666666 4.157333333333333 -5
vertex 2.777833333333333 4.157333333333333 -5
endloop
endfacet
facet normal 0 0 -0.9999999999999999
outer loop
vertex 8.815166666666666 4.6193333333333335 -5
vertex 2.777833333333333 4.157333333333333 -5
vertex 1.9135 4.6193333333333335 -5
endloop
endfacet
facet normal 0 0 -1
outer loop
vertex -6.788333333333333 3.8425 -5
vertex -2.777833333333333 4.157333333333333 -5
vertex -3.5355 3.5355 -5
endloop
endfacet
facet normal 0 0 -1
outer loop
vertex -6.788333333333333 3.8425 -5
vertex -3.5355 3.5355 -5
vertex -9.327166666666667 3.5355 -5
endloop
endfacet
facet normal 0 0 -1
outer loop
vertex -6.788333333333333 3.8425 -5
vertex -9.327166666666667 3.5355 -5
vertex -9.238833333333334 3.826833333333333 -5
endloop
endfacet
facet normal 0 0 -1
outer loop
vertex -6.788333333333333 3.8425 -5
vertex -9.238833333333334 3.826833333333333 -5
vertex -9.062166666666666 4.157333333333333 -5
endloop
endfacet
facet normal 0 0 -1
outer loop
vertex -6.788333333333333 3.8425 -5
vertex -9.062166666666666 4.157333333333333 -5
vertex -2.777833333333333 4.157333333333333 -5
endloop
endfacet
facet normal 0 0 -1
outer loop
vertex 6.788333333333333 3.8425 -5
vertex 9.062166666666666 4.157333333333333 -5
vertex 9.238833333333334 3.826833333333333 -5
endloop
endfacet
facet normal 0 0 -1
outer loop
vertex 6.788333333333333 3.8425 -5
vertex 9.238833333333334 3.826833333333333 -5
vertex 9.327166666666667 3.5355 -5
endloop
endfacet
facet normal 0 0 -1
outer loop
vertex 6.788333333333333 3.8425 -5
vertex 9.327166666666667 3.5355 -5
vertex 3.5355 3.5355 -5
endloop
endfacet
facet normal 0 0 -1
outer loop
vertex 6.788333333333333 3.8425 -5
vertex 3.5355 3.5355 -5
vertex 2.777833333333333 4.157333333333333 -5
endloop
endfacet
facet normal 0 0 -1
outer loop
vertex 6.788333333333333 3.8425 -5
vertex 2.777833333333333 4.157333333333333 -5
vertex 9.062166666666666 4.157333333333333 -5
endloop
endfacet
facet normal 0 0 -1
outer loop
vertex -3.5355 3.5355 -5
vertex -4.157333333333333 2.777833333333333 -5
vertex -9.557 2.777833333333333 -5
endloop
endfacet
facet normal 0 0 -1
outer loop
vertex -3.5355 3.5355 -5
vertex -9.557 2.777833333333333 -5
vertex -9.327166666666667 3.5355 -5
endloop
endfacet
facet normal 0 0 -1
outer loop
vertex 9.327166666666667 3.5355 -5
vertex 9.557 2.777833333333333 -5
vertex 4.157333333333333 2.777833333333333 -5
endloop
endfacet
facet normal 0 0 -1
outer loop
vertex 9.327166666666667 3.5355 -5
vertex 4.157333333333333 2.777833333333333 -5
vertex 3.5355 3.5355 -5
endloop
endfacet
facet normal 0 0 -1
outer loop
vertex -7.5906666666666665 2.2666666666666666 -5
vertex -4.157333333333333 2.777833333333333 -5
vertex -4.6193333333333335 1.9135 -5
endloop
endfacet
facet normal 0 0 -0.9999999999999999
outer loop
vertex -7.5906666666666665 2.2666666666666666 -5
vertex -4.6193333333333335 1.9135 -5
vertex -9.8115 1.9135 -5
endloop
endfacet
facet normal 0 0 -1
outer loop
vertex -7.5906666666666665 2.2666666666666666 -5
vertex -9.8115 1.9135 -5
vertex -9.807833333333333 1.9508333333333332 -5
endloop
endfacet
facet normal 0 0 -1
outer loop
vertex -7.5906666666666665 2.2666666666666666 -5
vertex -9.807833333333333 1.9508333333333332 -5
vertex -9.557 2.777833333333333 -5
endloop
endfacet
facet normal 0 0 -0.9999999999999999
outer loop
vertex -7.5906666666666665 2.2666666666666666 -5
vertex -9.557 2.777833333333333 -5
vertex -4.157333333333333 2.777833333333333 -5
endloop
endfacet
facet normal 0 0 -1
outer loop
vertex 7.5906666666666665 2.2666666666666666 -5
vertex 9.557 2.777833333333333 -5
vertex 9.807833333333333 1.9508333333333332 -5
endloop
endfacet
facet normal 0 0 -1
outer loop
vertex 7.5906666666666665 2.2666666666666666 -5
vertex 9.807833333333333 1.9508333333333332 -5
vertex 9.8115 1.9135 -5
endloop
endfacet
facet normal 0 0 -0.9999999999999999
outer loop
vertex 7.5906666666666665 2.2666666666666666 -5
vertex 9.8115 1.9135 -5
vertex 4.6193333333333335 1.9135 -5
endloop
endfacet
facet normal 0 0 -1
outer loop
vertex 7.5906666666666665 2.2666666666666666 -5
vertex 4.6193333333333335 1.9135 -5
vertex 4.157333333333333 2.777833333333333 -5
endloop
endfacet
facet normal 0 0 -0.9999999999999999
outer loop
vertex 7.5906666666666665 2.2666666666666666 -5
vertex 4.157333333333333 2.777833333333333 -5
vertex 9.557 2.777833333333333 -5
endloop
endfacet
facet normal 0 0 -1
outer loop
vertex -4.6193333333333335 1.9135 -5
vertex -4.904 0.9754999999999999 -5
vertex -9.904 0.9754999999999999 -5
endloop
endfacet
facet normal 0 0 -0.9999999999999999
outer loop
vertex -4.6193333333333335 1.9135 -5
vertex -9.904 0.9754999999999999 -5
vertex -9.8115 1.9135 -5
endloop
endfacet
facet normal 0 0 -1
outer loop
vertex 9.8115 1.9135 -5
vertex 9.904 0.9754999999999999 -5
vertex 4.904 0.9754999999999999 -5
endloop
endfacet
facet normal 0 0 -0.9999999999999999
outer loop
vertex 9.8115 1.9135 -5
vertex 4.904 0.9754999999999999 -5
vertex 4.6193333333333335 1.9135 -5
endloop
endfacet
facet normal 0 0 -1
outer loop
vertex -4.904 0.9754999999999999 -5
vertex -5 0 -5
vertex -10 0 -5
endloop
endfacet
facet normal 0 0 -1
outer loop
vertex -4.904 0.9754999999999999 -5
vertex -10 0 -5
vertex -9.904 0.9754999999999999 -5
endloop
endfacet
facet normal 0 0 -1
outer loop
vertex 9.904 0.9754999999999999 -5
vertex 10 0 -5
vertex 5 0 -5
endloop
endfacet
facet normal 0 0 -1
outer loop
vertex 9.904 0.9754999999999999 -5
vertex 5 0 -5
vertex 4.904 0.9754999999999999 -5
endloop
endfacet
facet normal 0 0 -1
outer loop
vertex -5 0 -5
vertex -4.904 -0.9754999999999999 -5
vertex -9.904 -0.9754999999999999 -5
endloop
endfacet
facet normal 0 0 -1
outer loop
vertex -5 0 -5
vertex -9.904 -0.9754999999999999 -5
vertex -10 0 -5
endloop
endfacet
facet normal 0 0 -1
outer loop
vertex 10 0 -5
vertex 9.904 -0.9754999999999999 -5
vertex 4.904 -0.9754999999999999 -5
endloop
endfacet
facet normal 0 0 -1
outer loop
vertex 10 0 -5
vertex 4.904 -0.9754999999999999 -5
vertex 5 0 -5
endloop
endfacet
facet normal 0 0 -0.9999999999999999
outer loop
vertex -4.904 -0.9754999999999999 -5
vertex -4.6193333333333335 -1.9135 -5
vertex -9.8115 -1.9135 -5
endloop
endfacet
facet normal 0 0 -1
outer loop
vertex -4.904 -0.9754999999999999 -5
vertex -9.8115 -1.9135 -5
vertex -9.904 -0.9754999999999999 -5
endloop
endfacet
facet normal 0 0 -1
outer loop
vertex 9.904 -0.9754999999999999 -5
vertex 9.8115 -1.9135 -5
vertex 4.6193333333333335 -1.9135 -5
endloop
endfacet
facet normal 0 0 -1
outer loop
vertex 9.904 -0.9754999999999999 -5
vertex 4.6193333333333335 -1.9135 -5
vertex 4.904 -0.9754999999999999 -5
endloop
endfacet
facet normal 0 0 -1
outer loop
vertex -7.5906666666666665 -2.2666666666666666 -5
vertex -4.6193333333333335 -1.9135 -5
vertex -4.157333333333333 -2.777833333333333 -5
endloop
endfacet
facet normal 0 0 -0.9999999999999999
outer loop
vertex -7.5906666666666665 -2.2666666666666666 -5
vertex -4.157333333333333 -2.777833333333333 -5
vertex -9.557 -2.777833333333333 -5
endloop
endfacet
facet normal 0 0 -1
outer loop
vertex -7.5906666666666665 -2.2666666666666666 -5
vertex -9.557 -2.777833333333333 -5
vertex -9.807833333333333 -1.9508333333333332 -5
endloop
endfacet
facet normal 0 0 -1
outer loop
vertex -7.5906666666666665 -2.2666666666666666 -5
vertex -9.807833333333333 -1.9508333333333332 -5
vertex -9.8115 -1.9135 -5
endloop
endfacet
facet normal 0 0 -0.9999999999999999
outer loop
vertex -7.5906666666666665 -2.2666666666666666 -5
vertex -9.8115 -1.9135 -5
vertex -4.6193333333333335 -1.9135 -5
endloop
endfacet
facet normal 0 0 -1
outer loop
vertex 7.5906666666666665 -2.2666666666666666 -5
vertex 9.8115 -1.9135 -5
vertex 9.807833333333333 -1.9508333333333332 -5
endloop
endfacet
facet normal 0 0 -1
outer loop
vertex 7.5906666666666665 -2.2666666666666666 -5
vertex 9.807833333333333 -1.9508333333333332 -5
vertex 9.557 -2.777833333333333 -5
endloop
endfacet
facet normal 0 0 -0.9999999999999999
outer loop
vertex 7.5906666666666665 -2.2666666666666666 -5
vertex 9.557 -2.777833333333333 -5
vertex 4.157333333333333 -2.777833333333333 -5
endloop
endfacet
facet normal 0 0 -1
outer loop
vertex 7.5906666666666665 -2.2666666666666666 -5
vertex 4.157333333333333 -2.777833333333333 -5
vertex 4.6193333333333335 -1.9135 -5
endloop
endfacet
facet normal 0 0 -0.9999999999999999
outer loop
vertex 7.5906666666666665 -2.2666666666666666 -5
vertex 4.6193333333333335 -1.9135 -5
vertex 9.8115 -1.9135 -5
endloop
endfacet
facet normal 0 0 -1
outer loop
vertex -4.157333333333333 -2.777833333333333 -5
vertex -3.5355 -3.5355 -5
vertex -9.327166666666667 -3.5355 -5
endloop
endfacet
facet normal 0 0 -1
outer loop
vertex -4.157333333333333 -2.777833333333333 -5
vertex -9.327166666666667 -3.5355 -5
vertex -9.557 -2.777833333333333 -5
endloop
endfacet
facet normal 0 0 -1
outer loop
vertex 9.557 -2.777833333333333 -5
vertex 9.327166666666667 -3.5355 -5
vertex 3.5355 -3.5355 -5
endloop
endfacet
facet normal 0 0 -1
outer loop
vertex 9.557 -2.777833333333333 -5
vertex 3.5355 -3.5355 -5
vertex 4.157333333333333 -2.777833333333333 -5
endloop
endfacet
facet normal 0 0 -1
outer loop
vertex -6.788333333333333 -3.8425 -5
vertex -3.5355 -3.5355 -5
vertex -2.777833333333333 -4.157333333333333 -5
endloop
endfacet
facet normal 0 0 -1
outer loop
vertex -6.788333333333333 -3.8425 -5
vertex -2.777833333333333 -4.157333333333333 -5
vertex -9.062166666666666 -4.157333333333333 -5
endloop
endfacet
facet normal 0 0 -1
outer loop
vertex -6.788333333333333 -3.8425 -5
vertex -9.062166666666666 -4.157333333333333 -5
vertex -9.238833333333334 -3.826833333333333 -5
endloop
endfacet
facet normal 0 0 -1
outer loop
vertex -6.788333333333333 -3.8425 -5
vertex -9.238833333333334 -3.826833333333333 -5
vertex -9.327166666666667 -3.5355 -5
endloop
endfacet
facet normal 0 0 -1
outer loop
vertex -6.788333333333333 -3.8425 -5
vertex -9.327166666666667 -3.5355 -5
vertex -3.5355 -3.5355 -5
endloop
endfacet
facet normal 0 0 -1
outer loop
vertex 6.788333333333333 -3.8425 -5
vertex 9.327166666666667 -3.5355 -5
vertex 9.238833333333334 -3.826833333333333 -5
endloop
endfacet
facet normal 0 0 -1
outer loop
vertex 6.788333333333333 -3.8425 -5
vertex 9.238833333333334 -3.826833333333333 -5
vertex 9.062166666666666 -4.157333333333333 -5
endloop
endfacet
facet normal 0 0 -1
outer loop
vertex 6.788333333333333 -3.8425 -5
vertex 9.062166666666666 -4.157333333333333 -5
vertex 2.777833333333333 -4.157333333333333 -5
endloop
endfacet
facet normal 0 0 -1
outer loop
vertex 6.788333333333333 -3.8425 -5
vertex 2.777833333333333 -4.157333333333333 -5
vertex 3.5355 -3.5355 -5
endloop
endfacet
facet normal 0 0 -1
outer loop
vertex 6.788333333333333 -3.8425 -5
vertex 3.5355 -3.5355 -5
vertex 9.327166666666667 -3.5355 -5
endloop
endfacet
facet normal 0 0 -0.9999999999999999
outer loop
vertex -2.777833333333333 -4.157333333333333 -5
vertex -1.9135 -4.6193333333333335 -5
vertex -8.815166666666666 -4.6193333333333335 -5
endloop
endfacet
facet normal 0 0 -1
outer loop
vertex -2.777833333333333 -4.157333333333333 -5
vertex -8.815166666666666 -4.6193333333333335 -5
vertex -9.062166666666666 -4.157333333333333 -5
endloop
endfacet
facet normal 0 0 -1
outer loop
vertex 9.062166666666666 -4.157333333333333 -5
vertex 8.815166666666666 -4.6193333333333335 -5
vertex 1.9135 -4.6193333333333335 -5
endloop
endfacet
facet normal 0 0 -1
outer loop
vertex 9.062166666666666 -4.157333333333333 -5
vertex 1.9135 -4.6193333333333335 -5
vertex 2.777833333333333 -4.157333333333333 -5
endloop
endfacet
facet normal 0 0 -1
outer loop
vertex -1.9135 -4.6193333333333335 -5
vertex -0.9754999999999999 -4.904 -5
vertex -8.663 -4.904 -5
endloop
endfacet
facet normal 0 0 -1
outer loop
vertex -1.9135 -4.6193333333333335 -5
vertex -8.663 -4.904 -5
vertex -8.815166666666666 -4.6193333333333335 -5
endloop
endfacet
facet normal 0 0 -1
outer loop
vertex 8.815166666666666 -4.6193333333333335 -5
vertex 8.663 -4.904 -5
vertex 0.9754999999999999 -4.904 -5
endloop
endfacet
facet normal 0 0 -1
outer loop
vertex 8.815166666666666 -4.6193333333333335 -5
vertex 0.9754999999999999 -4.904 -5
vertex 1.9135 -4.6193333333333335 -5
endloop
endfacet
facet normal 0 0 -1
outer loop
vertex -0.9754999999999999 -4.904 -5
vertex 0 -5 -5
vertex -8.611666666666666 -5 -5
endloop
endfacet
facet normal 0 0 -0.9999999999999999
outer loop
vertex -0.9754999999999999 -4.904 -5
vertex -8.611666666666666 -5 -5
vertex -8.663 -4.904 -5
endloop
endfacet
facet normal 0 0 -1
outer loop
vertex 8.663 -4.904 -5
vertex 8.611666666666666 -5 -5
vertex 0 -5 -5
endloop
endfacet
facet normal 0 0 -0.9999999999999999
outer loop
vertex 8.663 -4.904 -5
vertex 0 -5 -5
vertex 0.9754999999999999 -4.904 -5
endloop
endfacet
facet normal 0 0 -1
outer loop
vertex 0 -7.498333333333333 -5
vertex 0 -5 -5
vertex 8.611666666666666 -5 -5
endloop
endfacet
facet normal 0 0 -1
outer loop
vertex 0 -7.498333333333333 -5
vertex 8.611666666666666 -5 -5
vertex 8.314666666666666 -5.555666666666666 -5
endloop
endfacet
facet normal 0 0 -1
outer loop
vertex 0 -7.498333333333333 -5
vertex 8.314666666666666 -5.555666666666666 -5
vertex 7.071 -7.071 -5
endloop
endfacet
facet normal 0 0 -1
outer loop
vertex 0 -7.498333333333333 -5
vertex 7.071 -7.071 -5
vertex 5.555666666666666 -8.314666666666666 -5
endloop
endfacet
facet normal 0 0 -1
outer loop
vertex 0 -7.498333333333333 -5
vertex 5.555666666666666 -8.314666666666666 -5
vertex 3.826833333333333 -9.238833333333334 -5
endloop
endfacet
facet normal 0 0 -1
outer loop
vertex 0 -7.498333333333333 -5
vertex 3.826833333333333 -9.238833333333334 -5
vertex 1.9508333333333332 -9.807833333333333 -5
endloop
endfacet
facet normal 0 0 -1
outer loop
vertex 0 -7.498333333333333 -5
vertex 1.9508333333333332 -9.807833333333333 -5
vertex 0 -10 -5
endloop
endfacet
facet normal 0 0 -1
outer loop
vertex 0 -7.498333333333333 -5
vertex 0 -10 -5
vertex -1.9508333333333332 -9.807833333333333 -5
endloop
endfacet
facet normal 0 0 -1
outer loop
vertex 0 -7.498333333333333 -5
vertex -1.9508333333333332 -9.807833333333333 -5
vertex -3.826833333333333 -9.238833333333334 -5
endloop
endfacet
facet normal 0 0 -1
outer loop
vertex 0 -7.498333333333333 -5
vertex -3.826833333333333 -9.238833333333334 -5
vertex -5.555666666666666 -8.314666666666666 -5
endloop
endfacet
facet normal 0 0 -1
outer loop
vertex 0 -7.498333333333333 -5
vertex -5.555666666666666 -8.314666666666666 -5
vertex -7.071 -7.071 -5
endloop
endfacet
facet normal 0 0 -1
outer loop
vertex 0 -7.498333333333333 -5
vertex -7.071 -7.071 -5
vertex -8.314666666666666 -5.555666666666666 -5
endloop
endfacet
facet normal 0 0 -1
outer loop
vertex 0 -7.498333333333333 -5
vertex -8.314666666666666 -5.555666666666666 -5
vertex -8.611666666666666 -5 -5
endloop
endfacet
facet normal 0 0 -1
outer loop
vertex 0 -7.498333333333333 -5
vertex -8.611666666666666 -5 -5
vertex 0 -5 -5
endloop
endfacet
facet normal 0 0 1
outer loop
vertex 0 7.498333333333333 5
vertex -1.9508333333333332 9.807833333333333 5
vertex -3.826833333333333 9.238833333333334 5
endloop
endfacet
facet normal 0 0 1
outer loop
vertex 0 7.498333333333333 5
vertex -3.826833333333333 9.238833333333334 5
vertex -5.555666666666666 8.314666666666666 5
endloop
endfacet
facet normal 0 0 1
outer loop
vertex 0 7.498333333333333 5
vertex -5.555666666666666 8.314666666666666 5
vertex -7.071 7.071 5
endloop
endfacet
facet normal 0 0 1
outer loop
vertex 0 7.498333333333333 5
vertex -7.071 7.071 5
vertex -8.314666666666666 5.555666666666666 5
endloop
endfacet
facet normal 0 0 1
outer loop
vertex 0 7.498333333333333 5
vertex -8.314666666666666 5.555666666666666 5
vertex -8.611666666666666 5 5
endloop
endfacet
facet normal 0 0 1
outer loop
vertex 0 7.498333333333333 5
vertex -8.611666666666666 5 5
vertex 0 5 5
endloop
endfacet
facet normal 0 0 1
outer loop
vertex 0 7.498333333333333 5
vertex 0 5 5
vertex 8.611666666666666 5 5
endloop
endfacet
facet normal 0 0 1
outer loop
vertex 0 7.498333333333333 5
vertex 8.611666666666666 5 5
vertex 8.314666666666666 5.555666666666666 5
endloop
endfacet
facet normal 0 0 1
outer loop
vertex 0 7.498333333333333 5
vertex 8.314666666666666 5.555666666666666 5
vertex 7.071 7.071 5
endloop
endfacet
facet normal 0 0 1
outer loop
vertex 0 7.498333333333333 5
vertex 7.071 7.071 5
vertex 5.555666666666666 8.314666666666666 5
endloop
endfacet
facet normal 0 0 1
outer loop
vertex 0 7.498333333333333 5
vertex 5.555666666666666 8.314666666666666 5
vertex 3.826833333333333 9.238833333333334 5
endloop
endfacet
facet normal 0 0 1
outer loop
vertex 0 7.498333333333333 5
vertex 3.826833333333333 9.238833333333334 5
vertex 1.9508333333333332 9.807833333333333 5
endloop
endfacet
facet normal 0 0 1
outer loop
vertex 0 7.498333333333333 5
vertex 1.9508333333333332 9.807833333333333 5
vertex 0 10 5
endloop
endfacet
facet normal 0 0 1
outer loop
vertex 0 7.498333333333333 5
vertex 0 10 5
vertex -1.9508333333333332 9.807833333333333 5
endloop
endfacet
facet normal 0 0 0.9999999999999999
outer loop
vertex 0 5 5
vertex 0.9754999999999999 4.904 5
vertex 8.663 4.904 5
endloop
endfacet
facet normal 0 0 1
outer loop
vertex 0 5 5
vertex 8.663 4.904 5
vertex 8.611666666666666 5 5
endloop
endfacet
facet normal 0 0 0.9999999999999999
outer loop
vertex -8.611666666666666 5 5
vertex -8.663 4.904 5
vertex -0.9754999999999999 4.904 5
endloop
endfacet
facet normal 0 0 1
outer loop
vertex -8.611666666666666 5 5
vertex -0.9754999999999999 4.904 5
vertex 0 5 5
endloop
endfacet
facet normal 0 0 1
outer loop
vertex 0.9754999999999999 4.904 5
vertex 1.9135 4.6193333333333335 5
vertex 8.815166666666666 4.6193333333333335 5
endloop
endfacet
facet normal 0 0 1
outer loop
vertex 0.9754999999999999 4.904 5
vertex 8.815166666666666 4.6193333333333335 5
vertex 8.663 4.904 5
endloop
endfacet
facet normal 0 0 1
outer loop
vertex -8.663 4.904 5
vertex -8.815166666666666 4.6193333333333335 5
vertex -1.9135 4.6193333333333335 5
endloop
endfacet
facet normal 0 0 1
outer loop
vertex -8.663 4.904 5
vertex -1.9135 4.6193333333333335 5
vertex -0.9754999999999999 4.904 5
endloop
endfacet
facet normal 0 0 1
outer loop
vertex 1.9135 4.6193333333333335 5
vertex 2.777833333333333 4.157333333333333 5
vertex 9.062166666666666 4.157333333333333 5
endloop
endfacet
facet normal 0 0 0.9999999999999999
outer loop
vertex 1.9135 4.6193333333333335 5
vertex 9.062166666666666 4.157333333333333 5
vertex 8.815166666666666 4.6193333333333335 5
endloop
endfacet
facet normal 0 0 1
outer loop
vertex -8.815166666666666 4.6193333333333335 5
vertex -9.062166666666666 4.157333333333333 5
vertex -2.777833333333333 4.157333333333333 5
endloop
endfacet
facet normal 0 0 0.9999999999999999
outer loop
vertex -8.815166666666666 4.6193333333333335 5
vertex -2.777833333333333 4.157333333333333 5
vertex -1.9135 4.6193333333333335 5
endloop
endfacet
facet normal 0 0 1
outer loop
vertex 6.788333333333333 3.8425 5
vertex 2.777833333333333 4.157333333333333 5
vertex 3.5355 3.5355 5
endloop
endfacet
facet normal 0 0 1
outer loop
vertex 6.788333333333333 3.8425 5
vertex 3.5355 3.5355 5
vertex 9.327166666666667 3.5355 5
endloop
endfacet
facet normal 0 0 1
outer loop
vertex 6.788333333333333 3.8425 5
vertex 9.327166666666667 3.5355 5
vertex 9.238833333333334 3.826833333333333 5
endloop
endfacet
facet normal 0 0 1
outer loop
vertex 6.788333333333333 3.8425 5
vertex 9.238833333333334 3.826833333333333 5
vertex 9.062166666666666 4.157333333333333 5
endloop
endfacet
facet normal 0 0 1
outer loop
vertex 6.788333333333333 3.8425 5
vertex 9.062166666666666 4.157333333333333 5
vertex 2.777833333333333 4.157333333333333 5
endloop
endfacet
facet normal 0 0 1
outer loop
vertex -6.788333333333333 3.8425 5
vertex -9.062166666666666 4.157333333333333 5
vertex -9.238833333333334 3.826833333333333 5
endloop
endfacet
facet normal 0 0 1
outer loop
vertex -6.788333333333333 3.8425 5
vertex -9.238833333333334 3.826833333333333 5
vertex -9.327166666666667 3.5355 5
endloop
endfacet
facet normal 0 0 1
outer loop
vertex -6.788333333333333 3.8425 5
vertex -9.327166666666667 3.5355 5
vertex -3.5355 3.5355 5
endloop
endfacet
facet normal 0 0 1
outer loop
vertex -6.788333333333333 3.8425 5
vertex -3.5355 3.5355 5
vertex -2.777833333333333 4.157333333333333 5
endloop
endfacet
facet normal 0 0 1
outer loop
vertex -6.788333333333333 3.8425 5
vertex -2.777833333333333 4.157333333333333 5
vertex -9.062166666666666 4.157333333333333 5
endloop
endfacet
facet normal 0 0 1
outer loop
vertex 3.5355 3.5355 5
vertex 4.157333333333333 2.777833333333333 5
vertex 9.557 2.777833333333333 5
endloop
endfacet
facet normal 0 0 1
outer loop
vertex 3.5355 3.5355 5
vertex 9.557 2.777833333333333 5
vertex 9.327166666666667 3.5355 5
endloop
endfacet
facet normal 0 0 1
outer loop
vertex -9.327166666666667 3.5355 5
vertex -9.557 2.777833333333333 5
vertex -4.157333333333333 2.777833333333333 5
endloop
endfacet
facet normal 0 0 1
outer loop
vertex -9.327166666666667 3.5355 5
vertex -4.157333333333333 2.777833333333333 5
vertex -3.5355 3.5355 5
endloop
endfacet
facet normal 0 0 1
outer loop
vertex 7.5906666666666665 2.2666666666666666 5
vertex 4.157333333333333 2.777833333333333 5
vertex 4.6193333333333335 1.9135 5
endloop
endfacet
facet normal 0 0 0.9999999999999999
outer loop
vertex 7.5906666666666665 2.2666666666666666 5
vertex 4.6193333333333335 1.9135 5
vertex 9.8115 1.9135 5
endloop
endfacet
facet normal 0 0 1
outer loop
vertex 7.5906666666666665 2.2666666666666666 5
vertex 9.8115 1.9135 5
vertex 9.807833333333333 1.9508333333333332 5
endloop
endfacet
facet normal 0 0 1
outer loop
vertex 7.5906666666666665 2.2666666666666666 5
vertex 9.807833333333333 1.9508333333333332 5
vertex 9.557 2.777833333333333 5
endloop
endfacet
facet normal 0 0 0.9999999999999999
outer loop
vertex 7.5906666666666665 2.2666666666666666 5
vertex 9.557 2.777833333333333 5
vertex 4.157333333333333 2.777833333333333 5
endloop
endfacet
facet normal 0 0 1
outer loop
vertex -7.5906666666666665 2.2666666666666666 5
vertex -9.557 2.777833333333333 5
vertex -9.807833333333333 1.9508333333333332 5
endloop
endfacet
facet normal 0 0 1
outer loop
vertex -7.5906666666666665 2.2666666666666666 5
vertex -9.807833333333333 1.9508333333333332 5
vertex -9.8115 1.9135 5
endloop
endfacet
facet normal 0 0 0.9999999999999999
outer loop
vertex -7.5906666666666665 2.2666666666666666 5
vertex -9.8115 1.9135 5
vertex -4.6193333333333335 1.9135 5
endloop
endfacet
facet normal 0 0 1
outer loop
vertex -7.5906666666666665 2.2666666666666666 5
vertex -4.6193333333333335 1.9135 5
vertex -4.157333333333333 2.777833333333333 5
endloop
endfacet
facet normal 0 0 0.9999999999999999
outer loop
vertex -7.5906666666666665 2.2666666666666666 5
vertex -4.157333333333333 2.777833333333333 5
vertex -9.557 2.777833333333333 5
endloop
endfacet
facet normal 0 0 1
outer loop
vertex 4.6193333333333335 1.9135 5
vertex 4.904 0.9754999999999999 5
vertex 9.904 0.9754999999999999 5
endloop
endfacet
facet normal 0 0 0.9999999999999999
outer loop
vertex 4.6193333333333335 1.9135 5
vertex 9.904 0.9754999999999999 5
vertex 9.8115 1.9135 5
endloop
endfacet
facet normal 0 0 1
outer loop
vertex -9.8115 1.9135 5
vertex -9.904 0.9754999999999999 5
vertex -4.904 0.9754999999999999 5
endloop
endfacet
facet normal 0 0 0.9999999999999999
outer loop
vertex -9.8115 1.9135 5
vertex -4.904 0.9754999999999999 5
vertex -4.6193333333333335 1.9135 5
endloop
endfacet
facet normal 0 0 1
outer loop
vertex 4.904 0.9754999999999999 5
vertex 5 0 5
vertex 10 0 5
endloop
endfacet
facet normal 0 0 1
outer loop
vertex 4.904 0.9754999999999999 5
vertex 10 0 5
vertex 9.904 0.9754999999999999 5
endloop
endfacet
facet normal 0 0 1
outer loop
vertex -9.904 0.9754999999999999 5
vertex -10 0 5
vertex -5 0 5
endloop
endfacet
facet normal 0 0 1
outer loop
vertex -9.904 0.9754999999999999 5
vertex -5 0 5
vertex -4.904 0.9754999999999999 5
endloop
endfacet
facet normal 0 0 1
outer loop
vertex 5 0 5
vertex 4.904 -0.9754999999999999 5
vertex 9.904 -0.9754999999999999 5
endloop
endfacet
facet normal 0 0 1
outer loop
vertex 5 0 5
vertex 9.904 -0.9754999999999999 5
vertex 10 0 5
endloop
endfacet
facet normal 0 0 1
outer loop
vertex -10 0 5
vertex -9.904 -0.9754999999999999 5
vertex -4.904 -0.9754999999999999 5
endloop
endfacet
facet normal 0 0 1
outer loop
vertex -10 0 5
vertex -4.904 -0.9754999999999999 5
vertex -5 0 5
endloop
endfacet
facet normal 0 0 0.9999999999999999
outer loop
vertex 4.904 -0.9754999999999999 5
vertex 4.6193333333333335 -1.9135 5
vertex 9.8115 -1.9135 5
endloop
endfacet
facet normal 0 0 1
outer loop
vertex 4.904 -0.9754999999999999 5
vertex 9.8115 -1.9135 5
vertex 9.904 -0.9754999999999999 5
endloop
endfacet
facet normal 0 0 1
outer loop
vertex -9.904 -0.9754999999999999 5
vertex -9.8115 -1.9135 5
vertex -4.6193333333333335 -1.9135 5
endloop
endfacet
facet normal 0 0 1
outer loop
vertex -9.904 -0.9754999999999999 5
vertex -4.6193333333333335 -1.9135 5
vertex -4.904 -0.9754999999999999 5
endloop
endfacet
facet normal 0 0 1
outer loop
vertex 7.5906666666666665 -2.2666666666666666 5
vertex 4.6193333333333335 -1.9135 5
vertex 4.157333333333333 -2.777833333333333 5
endloop
endfacet
facet normal 0 0 0.9999999999999999
outer loop
vertex 7.5906666666666665 -2.2666666666666666 5
vertex 4.157333333333333 -2.777833333333333 5
vertex 9.557 -2.777833333333333 5
endloop
endfacet
facet normal 0 0 1
outer loop
vertex 7.5906666666666665 -2.2666666666666666 5
vertex 9.557 -2.777833333333333 5
vertex 9.807833333333333 -1.9508333333333332 5
endloop
endfacet
facet normal 0 0 1
outer loop
vertex 7.5906666666666665 -2.2666666666666666 5
vertex 9.807833333333333 -1.9508333333333332 5
vertex 9.8115 -1.9135 5
endloop
endfacet
facet normal 0 0 0.9999999999999999
outer loop
vertex 7.5906666666666665 -2.2666666666666666 5
vertex 9.8115 -1.9135 5
vertex 4.6193333333333335 -1.9135 5
endloop
endfacet
facet normal 0 0 1
outer loop
vertex -7.5906666666666665 -2.2666666666666666 5
vertex -9.8115 -1.9135 5
vertex -9.807833333333333 -1.9508333333333332 5
endloop
endfacet
facet normal 0 0 1
outer loop
vertex -7.5906666666666665 -2.2666666666666666 5
vertex -9.807833333333333 -1.9508333333333332 5
vertex -9.557 -2.777833333333333 5
endloop
endfacet
facet normal 0 0 0.9999999999999999
outer loop
vertex -7.5906666666666665 -2.2666666666666666 5
vertex -9.557 -2.777833333333333 5
vertex -4.157333333333333 -2.777833333333333 5
endloop
endfacet
facet normal 0 0 1
outer loop
vertex -7.5906666666666665 -2.2666666666666666 5
vertex -4.157333333333333 -2.777833333333333 5
vertex -4.6193333333333335 -1.9135 5
endloop
endfacet
facet normal 0 0 0.9999999999999999
outer loop
vertex -7.5906666666666665 -2.2666666666666666 5
vertex -4.6193333333333335 -1.9135 5
vertex -9.8115 -1.9135 5
endloop
endfacet
facet normal 0 0 1
outer loop
vertex 4.157333333333333 -2.777833333333333 5
vertex 3.5355 -3.5355 5
vertex 9.327166666666667 -3.5355 5
endloop
endfacet
facet normal 0 0 1
outer loop
vertex 4.157333333333333 -2.777833333333333 5
vertex 9.327166666666667 -3.5355 5
vertex 9.557 -2.777833333333333 5
endloop
endfacet
facet normal 0 0 1
outer loop
vertex -9.557 -2.777833333333333 5
vertex -9.327166666666667 -3.5355 5
vertex -3.5355 -3.5355 5
endloop
endfacet
facet normal 0 0 1
outer loop
vertex -9.557 -2.777833333333333 5
vertex -3.5355 -3.5355 5
vertex -4.157333333333333 -2.777833333333333 5
endloop
endfacet
facet normal 0 0 1
outer loop
vertex 6.788333333333333 -3.8425 5
vertex 3.5355 -3.5355 5
vertex 2.777833333333333 -4.157333333333333 5
endloop
endfacet
facet normal 0 0 1
outer loop
vertex 6.788333333333333 -3.8425 5
vertex 2.777833333333333 -4.157333333333333 5
vertex 9.062166666666666 -4.157333333333333 5
endloop
endfacet
facet normal 0 0 1
outer loop
vertex 6.788333333333333 -3.8425 5
vertex 9.062166666666666 -4.157333333333333 5
vertex 9.238833333333334 -3.826833333333333 5
endloop
endfacet
facet normal 0 0 1
outer loop
vertex 6.788333333333333 -3.8425 5
vertex 9.238833333333334 -3.826833333333333 5
vertex 9.327166666666667 -3.5355 5
endloop
endfacet
facet normal 0 0 1
outer loop
vertex 6.788333333333333 -3.8425 5
vertex 9.327166666666667 -3.5355 5
vertex 3.5355 -3.5355 5
endloop
endfacet
facet normal 0 0 1
outer loop
vertex -6.788333333333333 -3.8425 5
vertex -9.327166666666667 -3.5355 5
vertex -9.238833333333334 -3.826833333333333 5
endloop
endfacet
facet normal 0 0 1
outer loop
vertex -6.788333333333333 -3.8425 5
vertex -9.238833333333334 -3.826833333333333 5
vertex -9.062166666666666 -4.157333333333333 5
endloop
endfacet
facet normal 0 0 1
outer loop
vertex -6.788333333333333 -3.8425 5
vertex -9.062166666666666 -4.157333333333333 5
vertex -2.777833333333333 -4.157333333333333 5
endloop
endfacet
facet normal 0 0 1
outer loop
vertex -6.788333333333333 -3.8425 5
vertex -2.777833333333333 -4.157333333333333 5
vertex -3.5355 -3.5355 5
endloop
endfacet
facet normal 0 0 1
outer loop
vertex -6.788333333333333 -3.8425 5
vertex -3.5355 -3.5355 5
vertex -9.327166666666667 -3.5355 5
endloop
endfacet
facet normal 0 0 0.9999999999999999
outer loop
vertex 2.777833333333333 -4.157333333333333 5
vertex 1.9135 -4.6193333333333335 5
vertex 8.815166666666666 -4.6193333333333335 5
endloop
endfacet
facet normal 0 0 1
outer loop
vertex 2.777833333333333 -4.157333333333333 5
vertex 8.815166666666666 -4.6193333333333335 5
vertex 9.062166666666666 -4.157333333333333 5
endloop
endfacet
facet normal 0 0 1
outer loop
vertex -9.062166666666666 -4.157333333333333 5
vertex -8.815166666666666 -4.6193333333333335 5
vertex -1.9135 -4.6193333333333335 5
endloop
endfacet
facet normal 0 0 1
outer loop
vertex -9.062166666666666 -4.157333333333333 5
vertex -1.9135 -4.6193333333333335 5
vertex -2.777833333333333 -4.157333333333333 5
endloop
endfacet
facet normal 0 0 1
outer loop
vertex 1.9135 -4.6193333333333335 5
vertex 0.9754999999999999 -4.904 5
vertex 8.663 -4.904 5
endloop
endfacet
facet normal 0 0 1
outer loop
vertex 1.9135 -4.6193333333333335 5
vertex 8.663 -4.904 5
vertex 8.815166666666666 -4.6193333333333335 5
endloop
endfacet
facet normal 0 0 1
outer loop
vertex -8.815166666666666 -4.6193333333333335 5
vertex -8.663 -4.904 5
vertex -0.9754999999999999 -4.904 5
endloop
endfacet
facet normal 0 0 1
outer loop
vertex -8.815166666666666 -4.6193333333333335 5
vertex -0.9754999999999999 -4.904 5
vertex -1.9135 -4.6193333333333335 5
endloop
endfacet
facet normal 0 0 1
outer loop
vertex 0.9754999999999999 -4.904 5
vertex 0 -5 5
vertex 8.611666666666666 -5 5
endloop
endfacet
facet normal 0 0 0.9999999999999999
outer loop
vertex 0.9754999999999999 -4.904 5
vertex 8.611666666666666 -5 5
vertex 8.663 -4.904 5
endloop
endfacet
facet normal 0 0 1
outer loop
vertex -8.663 -4.904 5
vertex -8.611666666666666 -5 5
vertex 0 -5 5
endloop
endfacet
facet normal 0 0 0.9999999999999999
outer loop
vertex -8.663 -4.904 5
vertex 0 -5 5
vertex -0.9754999999999999 -4.904 5
endloop
endfacet
facet normal 0 0 1
outer loop
vertex 0 -7.498333333333333 5
vertex 0 -5 5
vertex -8.611666666666666 -5 5
endloop
endfacet
facet normal 0 0 1
outer loop
vertex 0 -7.498333333333333 5
vertex -8.611666666666666 -5 5
vertex -8.314666666666666 -5.555666666666666 5
endloop
endfacet
facet normal 0 0 1
outer loop
vertex 0 -7.498333333333333 5
vertex -8.314666666666666 -5.555666666666666 5
vertex -7.071 -7.071 5
endloop
endfacet
facet normal 0 0 1
outer loop
vertex 0 -7.498333333333333 5
vertex -7.071 -7.071 5
vertex -5.555666666666666 -8.314666666666666 5
endloop
endfacet
facet normal 0 0 1
outer loop
vertex 0 -7.498333333333333 5
vertex -5.555666666666666 -8.314666666666666 5
vertex -3.826833333333333 -9.238833333333334 5
endloop
endfacet
facet normal 0 0 1
outer loop
vertex 0 -7.498333333333333 5
vertex -3.826833333333333 -9.238833333333334 5
vertex -1.9508333333333332 -9.807833333333333 5
endloop
endfacet
facet normal 0 0 1
outer loop
vertex 0 -7.498333333333333 5
vertex -1.9508333333333332 -9.807833333333333 5
vertex 0 -10 5
endloop
endfacet
facet normal 0 0 1
outer loop
vertex 0 -7.498333333333333 5
vertex 0 -10 5
vertex 1.9508333333333332 -9.807833333333333 5
endloop
endfacet
facet normal 0 0 1
outer loop
vertex 0 -7.498333333333333 5
vertex 1.9508333333333332 -9.807833333333333 5
vertex 3.826833333333333 -9.238833333333334 5
endloop
endfacet
facet normal 0 0 1
outer loop
vertex 0 -7.498333333333333 5
vertex 3.826833333333333 -9.238833333333334 5
vertex 5.555666666666666 -8.314666666666666 5
endloop
endfacet
facet normal 0 0 1
outer loop
vertex 0 -7.498333333333333 5
vertex 5.555666666666666 -8.314666666666666 5
vertex 7.071 -7.071 5
endloop
endfacet
facet normal 0 0 1
outer loop
vertex 0 -7.498333333333333 5
vertex 7.071 -7.071 5
vertex 8.314666666666666 -5.555666666666666 5
endloop
endfacet
facet normal 0 0 1
outer loop
vertex 0 -7.498333333333333 5
vertex 8.314666666666666 -5.555666666666666 5
vertex 8.611666666666666 -5 5
endloop
endfacet
facet normal 0 0 1
outer loop
vertex 0 -7.498333333333333 5
vertex 8.611666666666666 -5 5
vertex 0 -5 5
endloop
endfacet
endsolid JSCAD
